#tb 0: 1/25
#media_type 0: video
#codec_id 0: rawvideo
#dimensions 0: 416x240
#sar 0: 0/1
0,          0,          0,        1,   299520, 0x077fc067
0,          1,          1,        1,   299520, 0xcbb04d4d
0,          2,          2,        1,   299520, 0xcbd4706b
0,          3,          3,        1,   299520, 0x2b5829f3
0,          4,          4,        1,   299520, 0xb4883ddf
